<?xml version="1.0" encoding="utf-8"?>
<!-- Generator: Adobe Illustrator 22.0.1, SVG Export Plug-In . SVG Version: 6.00 Build 0)  -->
<svg version="1.2" baseProfile="tiny" id="Layer_1" xmlns="http://www.w3.org/2000/svg" xmlns:xlink="http://www.w3.org/1999/xlink"
	 x="0px" y="0px" viewBox="0 0 512 512" xml:space="preserve">
<path d="M489,214.7c-9.6-14-20.6-27.3-33.9-38c-12.1-10.1-27.7-19.7-44.2-15.6c2.3-0.5,6-6.9,7.6-8.9c2.3-3.2,4.6-6.6,6.6-10.5
	c3-6,5.7-12.4,8-18.8c5-13.7,8.2-28.4,8.5-43.1c0-2.3-0.9-4.6-2.3-6.2c-1.4-1.4-3.9-2.3-6.2-2.3c-14.7,0.2-29.3,3.4-43.1,8.5
	c-6.4,2.3-12.8,5-18.8,8c-3.7,2.3-7.3,4.6-10.5,6.6c-2.1,1.6-8.5,5.3-8.9,7.8c4.4-16.5-5.5-32.1-15.6-44.4
	c-10.5-13.3-23.8-24.3-38-33.9c-3.9-2.7-9.6-0.9-11.2,3.7c-6.6,16-11,33.4-11.7,50.9c-0.9,16,3.4,31.2,10.5,45.1
	c-33.9-22.7-74.5-39.2-114.6-28.2c-16.5,4.4-31.8,12.6-46.7,25.2C47.8,184.7,5.2,316.4,31.1,408.1c5,17.6,14.4,33.7,27,46.7
	c12.8,12.4,28.9,21.8,46.5,26.6c18.3,5.3,38.3,7.8,58.7,7.8c82.9,0,177.6-39.6,228.9-101c12.6-14.9,20.8-30.2,25.2-46.7
	c10.8-40.1-5.7-80.9-28.4-114.8c14.2,7.6,29.6,11.9,45.8,11.2c17.2-0.9,34.6-5.3,50.9-11.7C490,224.6,491.8,218.8,489,214.7z
	 M388.7,333.4c-3.4,12.4-9.6,24.1-19.5,35.5c-56.4,67.6-176.2,106.5-256.4,83.9h-0.2c-12.8-3.7-24.5-10.3-33.4-19
	c-8.9-9.2-15.6-20.8-19.2-33.9c-22.9-80.2,16.3-200,83.9-256.4c11.5-9.9,23.1-16,35.3-19.5c6-1.6,12.1-2.3,18.3-2.3
	c49,0,101.3,47.7,123.5,70.3C346.1,216.8,403.3,279.8,388.7,333.4z M303.7,286c-2.7,3-6.9,4.4-11,4.4c-4.1,0-8.2-1.4-11.2-4.4
	c-5.7-5.7-5.7-16.3,0-22.2c5.7-5.5,17-5.5,22.5,0.2C309.6,269.9,309.4,280.2,303.7,286z M211.6,378.1c-2.7,3-6.9,4.4-11,4.4
	s-8.2-1.4-11.2-4.4c-2.7-2.8-4.6-7.1-4.6-11c0-4.1,2.1-8.5,4.8-11.5c6-5.5,16.3-5.5,22,0.2C217.5,361.8,217.5,372.3,211.6,378.1z
	 M285.1,359c-3,3-6.9,4.4-11,4.4c-4.1,0-8.2-1.4-11.2-4.4c-2.7-2.7-4.6-7.1-4.6-11c0-4.1,2.1-8.7,5-11.5c5.7-5.5,16-5.5,21.8,0.2
	C290.9,342.8,290.9,353.3,285.1,359z M248.9,231.2c-3,2.7-7.1,4.4-11.2,4.4s-8-1.6-11-4.4c-6-6-6-16.5,0-22.2c5.7-6,16.3-6,22.2,0
	C254.7,214.7,254.7,225.2,248.9,231.2z M156.8,323.1c-2.8,3-7.1,4.8-11.2,4.8c-4.1,0-8.5-2.1-11.5-5c-5.5-6-5.3-16.3,0.5-22
	c5.7-5.7,16.3-5.7,22.2,0C162.6,306.8,162.6,317.3,156.8,323.1z M175.8,249.8c-3,3-7.1,4.4-11.2,4.4s-8-1.4-11-4.4
	c-5.7-5.7-6-16.3-0.2-22c0-0.2,0.2-0.2,0.2-0.2c5.7-5.7,16.3-5.7,22.2,0C181.6,233.3,181.6,243.8,175.8,249.8z M230.8,304.1
	c-0.2,0-0.2,0.2-0.5,0.5c-2.7,2.7-6.9,4.4-11,4.4s-8.2-1.6-11.2-4.4c-5.7-6-5.7-16.3,0-22.2c2.7-2.7,7.1-4.4,11-4.6
	c3.2,0.2,8.5,1.6,11.2,4.4C236.1,287.8,236.3,298.1,230.8,304.1z M138,396.8c-3,3-7.1,4.4-11.2,4.4c-4.1,0-8-1.4-11-4.4
	c-6-5.7-6-16.3,0-22.2c5.7-5.7,16.3-5.7,22.2,0C143.8,380.6,143.8,391.1,138,396.8z"/>
</svg>
