<?xml version="1.0" encoding="utf-8"?>
<!-- Generator: Adobe Illustrator 22.0.1, SVG Export Plug-In . SVG Version: 6.00 Build 0)  -->
<svg version="1.1" id="Layer_3" xmlns="http://www.w3.org/2000/svg" xmlns:xlink="http://www.w3.org/1999/xlink" x="0px" y="0px"
	 viewBox="0 0 32 32" enable-background="new 0 0 32 32" xml:space="preserve">
<path d="M23.6,4.5c-0.9-0.2-1.9-0.3-2.9-0.2c-0.9,0.1-1.9,0.3-2.4,1.1c0.1-0.1,0-0.5-0.1-0.7c0-0.2-0.1-0.4-0.2-0.7
	C18,3.7,17.9,3.4,17.7,3c-0.3-0.7-0.8-1.5-1.4-2.1c-0.1-0.1-0.2-0.1-0.3-0.2c-0.1,0-0.2,0.1-0.3,0.2c-0.6,0.6-1,1.3-1.4,2.1
	c-0.2,0.3-0.3,0.7-0.4,1.1c-0.1,0.2-0.1,0.5-0.2,0.7c0,0.1-0.1,0.5,0,0.7c-0.5-0.8-1.5-1.1-2.4-1.1c-0.9-0.1-1.9,0-2.9,0.2
	C8.1,4.5,8,4.8,8.1,5.1C8.5,6,9,6.8,9.7,7.5c0.6,0.7,1.4,1.1,2.2,1.4c-2.3,0.4-4.5,1.4-5.7,3.4c-0.5,0.8-0.8,1.8-0.9,2.9
	c-0.5,5.6,3,12.6,7.7,15.2c0.9,0.5,1.9,0.8,2.9,0.8c1,0,2-0.3,2.9-0.8c0.9-0.5,1.8-1.2,2.6-2c3.3-3.3,5.5-8.7,5.1-13.1
	c-0.1-1.1-0.4-2-0.9-2.9c-1.2-2-3.4-3-5.7-3.4c0.9-0.3,1.7-0.7,2.3-1.4C23,6.8,23.5,6,23.9,5.1C24,4.8,23.9,4.5,23.6,4.5z
	 M24.3,13.2c0.4,0.6,0.6,1.3,0.6,2.2c0.4,4.9-2.8,11.3-6.9,13.5l0,0c-0.7,0.4-1.4,0.6-2.1,0.6c-0.7,0-1.5-0.2-2.1-0.6
	C9.8,26.6,6.6,20.3,7,15.4c0.1-0.8,0.3-1.6,0.6-2.2c0.2-0.3,0.4-0.6,0.6-0.8c2-2,5.9-2.1,7.7-2.1C18,10.2,22.8,10.5,24.3,13.2z"/>
<path d="M19.1,14.7c0,0.2-0.1,0.4-0.3,0.6s-0.4,0.3-0.6,0.3c-0.5,0-0.9-0.4-0.9-0.9c0-0.4,0.5-0.9,0.9-0.9
	C18.7,13.8,19.1,14.2,19.1,14.7z"/>
<path d="M19.1,22c0,0.2-0.1,0.4-0.3,0.6s-0.4,0.3-0.6,0.3c-0.2,0-0.5-0.1-0.6-0.3c-0.2-0.2-0.3-0.4-0.3-0.6c0-0.5,0.4-0.9,0.9-0.9
	C18.7,21.1,19.1,21.5,19.1,22z"/>
<path d="M21.2,18.3c0,0.2-0.1,0.4-0.3,0.6c-0.2,0.2-0.4,0.3-0.6,0.3c-0.2,0-0.5-0.1-0.6-0.3c-0.2-0.2-0.3-0.4-0.3-0.7
	c0-0.4,0.4-0.9,0.9-0.9C20.8,17.5,21.2,17.9,21.2,18.3z"/>
<path d="M14.7,14.7c0,0.2-0.1,0.5-0.3,0.6c-0.2,0.2-0.4,0.3-0.6,0.3c-0.5,0-0.9-0.4-0.9-0.9c0-0.5,0.4-0.9,0.9-0.9
	C14.3,13.8,14.7,14.2,14.7,14.7z"/>
<path d="M14.7,22c0,0.2-0.1,0.5-0.3,0.6s-0.4,0.3-0.7,0.3c-0.5,0-0.9-0.4-0.9-0.9c0-0.5,0.4-0.9,0.9-0.9
	C14.3,21.1,14.7,21.5,14.7,22z"/>
<path d="M12.5,18.3c0,0.2-0.1,0.5-0.3,0.6c-0.2,0.2-0.4,0.3-0.6,0.3c-0.5,0-0.9-0.4-0.9-0.9c0,0,0,0,0,0c0-0.5,0.4-0.9,0.9-0.9
	C12.1,17.4,12.5,17.9,12.5,18.3z"/>
<path d="M16.9,18.3C16.9,18.3,16.9,18.3,16.9,18.3c0,0.3-0.1,0.5-0.3,0.6s-0.4,0.3-0.6,0.3c-0.5,0-0.9-0.4-0.9-0.9
	c0-0.2,0.1-0.5,0.3-0.6c0.1-0.1,0.4-0.3,0.6-0.3C16.4,17.4,16.9,17.8,16.9,18.3z"/>
<path d="M16.9,25.7c0,0.2-0.1,0.5-0.3,0.6c-0.2,0.2-0.4,0.3-0.6,0.3c-0.5,0-0.9-0.4-0.9-0.9c0-0.5,0.4-0.9,0.9-0.9
	C16.5,24.8,16.9,25.2,16.9,25.7z"/>
</svg>
