<?xml version="1.0" encoding="utf-8"?>
<!-- Generator: Adobe Illustrator 22.0.1, SVG Export Plug-In . SVG Version: 6.00 Build 0)  -->
<svg version="1.2" baseProfile="tiny" id="Layer_1" xmlns="http://www.w3.org/2000/svg" xmlns:xlink="http://www.w3.org/1999/xlink"
	 x="0px" y="0px" viewBox="0 0 512 512" xml:space="preserve">
<g>
	<path d="M215,234.7c2.5,8.8,0.3,19-6.3,26.3c-0.3,0.5-0.8,1-1,1.3c-0.5,0.5-1,0.8-1.3,1.3c-5.8,4.3-13.9,4-19.2-1.3
		c-5.1-5.1-5.3-13.4-1-19c0.3-0.5,0.8-0.8,1-1.3c0.5-0.5,1-0.8,1.3-1C196.1,234.2,205.9,232.2,215,234.7z"/>
	<path d="M280.8,277.4c0.3,1,0.3,2,0.3,2.8c0,1,0,2-0.3,3c-1.5,12.4-11.9,22-24.8,22c-12.9,0-23.3-9.6-24.8-22c-0.3-1-0.3-2-0.3-3
		c0-0.8,0-1.8,0.3-2.8C232,260,241.8,245.1,256,237C270.2,245.1,280,260,280.8,277.4z"/>
	<path d="M324.8,262.3c-5.3,5.3-13.4,5.6-19.2,1.3c-0.3-0.5-0.8-0.8-1.3-1.3c-0.3-0.3-0.8-0.8-1-1.3c-6.6-7.3-8.6-17.4-6.3-26.3
		c9.1-2.5,19-0.5,26.5,6.3c0.3,0.3,0.8,0.5,1.3,1c0.3,0.5,0.8,0.8,1,1.3C330.1,248.9,329.8,257,324.8,262.3z"/>
	<path d="M500,190.2c0,134.5-109.5,244-244,244S12,324.7,12,190.2c0-9.1,7.3-16.4,16.4-16.4s16.4,7.3,16.4,16.4
		c0,116.6,94.8,211.1,211.1,211.1s211.1-94.6,211.1-211.1c0-9.1,7.3-16.4,16.4-16.4C492.7,173.8,500,181.1,500,190.2z"/>
</g>
<path d="M420.6,191.7c-0.5-0.5-0.8-1-1.3-1.5c-10.6-13.4-26.8-21.2-43.7-21.2H136.4c-16.9,0-33.1,7.8-43.7,21.2
	c-0.5,0.5-0.8,1-1.3,1.5C81,205.9,78.2,223.6,83.3,240c24,75.6,93.3,126.4,172.7,126.4S404.7,315.6,428.7,240
	C433.8,223.6,431,205.9,420.6,191.7z M397.3,230.2C377.9,292.1,321,333.6,256,333.6s-121.6-41.5-141.3-103.4c-2-6.6-0.8-13.4,3.3-19
	c4.3-5.8,11.1-9.4,18.5-9.4h239.2c7.3,0,14.2,3.5,18.5,9.4C398.1,216.8,399.4,223.6,397.3,230.2z"/>
<path d="M281,280.2c0,1,0,2-0.3,3c-1.5,12.4-11.9,22-24.8,22c-12.9,0-23.3-9.6-24.8-22c-0.3-1-0.3-2-0.3-3c0-0.8,0-1.8,0.3-2.8
	C232,260,241.8,245.1,256,237c14.2,8.1,24,23,24.8,40.5C281,278.5,281,279.5,281,280.2z"/>
<path d="M324.8,262.3c-5.3,5.3-13.4,5.6-19.2,1.3c-0.3-0.5-0.8-0.8-1.3-1.3c-0.3-0.3-0.8-0.8-1-1.3c-6.6-7.3-8.6-17.4-6.3-26.3
	c9.1-2.5,19-0.5,26.5,6.3c0.3,0.3,0.8,0.5,1.3,1c0.3,0.5,0.8,0.8,1,1.3C330.1,248.9,329.8,257,324.8,262.3z"/>
<path d="M208.7,261c-0.3,0.5-0.8,1-1,1.3c-0.5,0.5-1,0.8-1.3,1.3c-5.8,4.3-13.9,4-19.2-1.3c-5.1-5.1-5.3-13.4-1-19
	c0.3-0.5,0.8-0.8,1-1.3c0.5-0.5,1-0.8,1.3-1c7.6-6.8,17.4-8.8,26.5-6.3C217.6,243.6,215.3,253.7,208.7,261z"/>
</svg>
