<?xml version="1.0" encoding="utf-8"?>
<!-- Generator: Adobe Illustrator 22.0.1, SVG Export Plug-In . SVG Version: 6.00 Build 0)  -->
<svg version="1.2" baseProfile="tiny" xmlns="http://www.w3.org/2000/svg" xmlns:xlink="http://www.w3.org/1999/xlink" x="0px"
	 y="0px" viewBox="0 0 512 512" xml:space="preserve">
<g id="Layer_1">
</g>
<g id="Layer_2">
	<g>
		<linearGradient id="SVGID_1_" gradientUnits="userSpaceOnUse" x1="198.8179" y1="139.433" x2="198.8179" y2="92.6877">
			<stop  offset="0" style="stop-color:#AA182E"/>
			<stop  offset="1" style="stop-color:#E83681"/>
		</linearGradient>
		<path fill="url(#SVGID_1_)" d="M225,116c0,11.4-7.3,21.1-17.4,24.7c-2.7,1-5.7,1.5-8.7,1.5c-14.5,0-26.2-11.7-26.2-26.2
			c0-14.5,11.7-26.2,26.2-26.2c11.7,0,21.6,7.7,24.9,18.2C224.6,110.5,225,113.2,225,116z"/>
		<linearGradient id="SVGID_2_" gradientUnits="userSpaceOnUse" x1="84.7589" y1="296.4189" x2="427.9078" y2="296.4189">
			<stop  offset="0" style="stop-color:#AA182E"/>
			<stop  offset="1" style="stop-color:#E83681"/>
		</linearGradient>
		<path fill="url(#SVGID_2_)" d="M427.9,212.5c0,27.6-6.5,53.6-18.1,76.7v89.7c0,9-7.3,16.4-16.4,16.4c-9,0-16.4-7.3-16.4-16.4
			v-44.5c-31,30.7-73.7,49.7-120.8,49.7c-10.4,0-20.5-0.9-30.3-2.7v82.9c0,9-7.3,16.4-16.4,16.4c-9,0-16.4-7.3-16.4-16.4v-92.2
			c-4.6-1.8-9.1-3.8-13.4-6v19.4c0,14.5-11.7,26.2-26.2,26.2c-14.5,0-26.2-11.7-26.2-26.2v-59.7c-26.6-30.2-42.7-69.9-42.7-113.3
			c0-10.3,0.9-20.4,2.7-30.2c0-0.1,0-0.2,0-0.2c0.1-0.4,0.1-0.8,0.2-1.1c0,0,0,0,0-0.1C90,169.3,99.9,160.6,112,160h0
			c0.6,0,1.2,0,1.8,0c0.3,0,0.6,0,0.9,0c4.3,0,8.4,0.2,12.6,0.7c32,3.7,59.7,21.6,76.8,47.1c2.6,3.9,5,8,7.1,12.3c0,0,0,0,0,0
			c0.2,0.4,0.4,0.7,0.5,1.1c0,0,0,0,0,0c0,0,0,0,0,0c4.9,10,11.2,19,18.8,27c14.1,14.7,32.4,25.5,52.9,30.3
			c7.9,1.9,16.2,2.9,24.6,2.9c59.2,0,107.2-48,107.2-107.2c0-23.1-7.3-44.6-19.8-62.1C415.9,140.4,427.9,175,427.9,212.5z"/>
		<linearGradient id="SVGID_3_" gradientUnits="userSpaceOnUse" x1="322.909" y1="272.8798" x2="322.909" y2="71.6142">
			<stop  offset="0" style="stop-color:#660E36"/>
			<stop  offset="1" style="stop-color:#E83668"/>
		</linearGradient>
		<path fill="url(#SVGID_3_)" d="M415.2,177.2c-1.6,58.6-48.9,104.4-107.5,104.2c-8.4,0-16.5-1-24.3-2.8
			c-20.5-4.8-38.8-15.5-52.9-30.3c12.1-2.3,21.3-12.9,21.3-25.7c0-4.4-1.1-8.5-3-12.1c0,0,0,0,0,0c-0.2-0.4-0.4-0.8-0.7-1.2
			c0,0,0,0,0,0c-3.1-5.9-4.9-12.6-4.9-19.7c0-17.6,10.9-32.7,26.3-38.9c5.9-2.4,12.1,1.8,12.5,8.1c0,0.1,0,0.2,0,0.3
			c0.9,12.1,10.3,22.2,22.3,23.9c7.9,1.1,15.3-1.3,20.7-6c5.7-4.8,9.2-12,9.2-20c0-2.7-0.4-5.3-1.2-7.7c-0.1-0.3-0.2-0.7-0.3-1
			c-0.1-0.2-0.2-0.5-0.3-0.7c0-0.1,0-0.1-0.1-0.2c-7.5-20.3-21-37.6-38.2-50c0,0,0,0,0,0c-0.1-0.1-0.3-0.2-0.4-0.3
			c-0.3-0.2-0.6-0.4-0.9-0.6c0,0,0,0,0,0c-3.8-3-6.3-7.7-6.3-12.9c0-7.5,5.1-13.8,12-15.8c0.8-0.2,1.7-0.4,2.6-0.5c0,0,0.1,0,0.1,0
			c0.6,0,1.1-0.1,1.7-0.1h0c0.7,0,1.4-0.1,2.1-0.1c1,0,2,0,3,0c35.1,0,66.2,16.8,85.8,42.9c0.6,0.8,1.1,1.5,1.7,2.3
			C408.5,130.4,415.9,153,415.2,177.2z"/>
	</g>
</g>
</svg>
