<?xml version="1.0" encoding="utf-8"?>
<!-- Generator: Adobe Illustrator 22.0.1, SVG Export Plug-In . SVG Version: 6.00 Build 0)  -->
<svg version="1.2" baseProfile="tiny" id="Layer_1" xmlns="http://www.w3.org/2000/svg" xmlns:xlink="http://www.w3.org/1999/xlink"
	 x="0px" y="0px" viewBox="0 0 512 512" xml:space="preserve">
<g>
	<path d="M179.5,345c-7.1-1.5-14.3-1.4-21.4,0.3c-8.4,1.9-17.1,0.1-24-5c-5.9-4.4-12.5-7.4-19.5-8.9c-27.6-5.7-55.3,12.5-64.5,43.1
		c-0.5,1.7-1,3.3-1.4,5.3c-0.4,1.8-0.6,3.6-0.8,5.4c-8.4,51.7,20.7,99.7,66.3,109.3c5.4,1.1,10.8,1.7,16.2,1.7
		c39.9,0,77-30.3,88.4-74.7c0.5-1.8,1.1-3.6,1.5-5.6c0.5-2.1,0.7-4,0.9-5.9C225.1,378.7,207.1,350.8,179.5,345z M196.7,406.9
		c-0.1,1.2-0.3,2.4-0.5,3.7l0,0.1c-0.3,1.3-0.6,2.4-1.1,4.2c-9.8,37.9-43,62.1-75.7,55.4c-32.6-6.9-53.3-42.5-46.9-82.1
		c0.1-1.1,0.3-2.2,0.5-3.3c0.3-1.2,0.6-2.3,1.1-3.8c4.6-15.4,17.4-26,30.6-26c1.6,0,3.3,0.2,4.9,0.5c3.5,0.7,6.8,2.3,9.8,4.5
		c12.7,9.5,28.8,12.9,44.4,9.3c3.6-0.8,7.2-0.9,10.7-0.2C189.1,372.3,198.9,388.8,196.7,406.9z"/>
</g>
<g>
	<path d="M440.5,367.5c-0.5-1.7-0.9-3.4-1.6-5.2v0c-0.7-1.8-1.4-3.5-2.4-5.5c-13.2-28.5-43.3-42.6-69.7-32.9
		c-6.8,2.5-12.8,6.3-18,11.5c-6.1,6.1-14.4,9.1-23,8.4c-7.3-0.7-14.5,0.3-21.3,2.8c-26.5,9.7-40.3,39.8-32.1,70
		c0.5,1.9,1,3.8,1.8,5.7c0.7,2,1.5,3.6,2.1,5.1c16.1,38.5,51.2,62.5,87,62.5c9.1,0,18.2-1.5,27.1-4.8
		C434.2,469.2,456.2,417.5,440.5,367.5z M298.9,417.3c-0.5-1.1-1-2.1-1.5-3.5c-0.5-1.2-0.7-2.4-1.1-3.6
		c-4.8-17.5,2.6-35.2,16.7-40.4c2.7-1,5.5-1.5,8.5-1.5c0.7,0,1.5,0,2.2,0.1c16,1.3,31.3-4.3,42.6-15.6c2.6-2.6,5.6-4.5,9-5.8
		c14.4-5.2,31,3.4,39,20.5c0.5,1,0.9,2,1.3,3.2c0.4,1.1,0.7,2.2,1.3,4.2c11.7,37.3-3.6,75.5-35,87
		C350.6,473.4,314.2,454.1,298.9,417.3z"/>
</g>
<path d="M148.7,336.4c-1.3,0-2.7-0.2-4-0.7c-6.5-2.2-9.9-9.2-7.7-15.7c7.2-21,12.8-43.1,16.7-65.6c3.5-21,5.5-42.4,5.9-63.7
	c0.3-18.9,10.8-36.4,27.3-45.5c16-8.8,34.8-8.5,50.3,0.9c61.1,37.1,102,101.7,109.3,172.9c0.7,6.8-4.2,12.9-11,13.6
	c-6.7,0.8-12.9-4.2-13.6-11c-6.5-63.5-43-121.2-97.5-154.2c-8-4.8-17.3-5-25.5-0.4c-8.9,4.9-14.4,14-14.5,24.3
	c-0.4,22.5-2.5,45.2-6.3,67.5c-4.1,23.9-10,47.2-17.6,69.5C158.7,333.2,153.9,336.4,148.7,336.4z"/>
<path d="M195.7,97.9c-2.2,2.8-5,5.3-8.1,7.3c-1.7,0.8-3.4,1.7-5,2.5c-24.3,11.2-54,11.2-77.7-0.6c-0.8-0.3-1.1-0.3-1.1-0.3
	C82.2,95.9,67.1,77.8,57.6,57.4C52.3,45.9,38,18.2,64,16.3c15.9-1.1,32.1,0,47.5,3.6c28.8,6.2,54.8,21.1,75.3,42.4
	C195.7,71.6,204.8,85.6,195.7,97.9z"/>
</svg>
