<?xml version="1.0" encoding="utf-8"?>
<!-- Generator: Adobe Illustrator 22.0.1, SVG Export Plug-In . SVG Version: 6.00 Build 0)  -->
<svg version="1.2" baseProfile="tiny" id="Layer_1" xmlns="http://www.w3.org/2000/svg" xmlns:xlink="http://www.w3.org/1999/xlink"
	 x="0px" y="0px" viewBox="0 0 512 512" xml:space="preserve">
<path fill="#B59752" d="M269.7,30l47.8,147.2c1.9,6,7.5,10,13.7,10h154.8c14,0,19.8,17.9,8.5,26.1l-125.2,91
	c-5.1,3.7-7.2,10.2-5.2,16.1L412,467.7c4.3,13.3-10.9,24.4-22.2,16.1l-125.2-91c-5.1-3.7-11.9-3.7-17,0l-125.2,91
	c-11.3,8.2-26.5-2.8-22.2-16.1l47.8-147.2c1.9-6-0.2-12.5-5.2-16.1l-125.2-91c-11.3-8.2-5.5-26.1,8.5-26.1h154.8
	c6.3,0,11.8-4,13.7-10L242.3,30C246.6,16.7,265.4,16.7,269.7,30z"/>
</svg>
