<?xml version="1.0" encoding="utf-8"?>
<!-- Generator: Adobe Illustrator 22.0.1, SVG Export Plug-In . SVG Version: 6.00 Build 0)  -->
<svg version="1.2" baseProfile="tiny" id="Layer_1" xmlns="http://www.w3.org/2000/svg" xmlns:xlink="http://www.w3.org/1999/xlink"
	 x="0px" y="0px" viewBox="0 0 512 512" xml:space="preserve">
<path d="M433.6,102.4c-12.7-8.5-28.9-10.3-43.3-4.7c-10.9,4.2-21.8,9.3-32.4,14.8c-39.6,20.2-74.8,47.3-104.4,79.9
	c-24.7-37.2-54.8-69.2-90-95.1c-10.5-7.7-20.2-14.2-29.7-19.6c-13.1-7.7-29.3-8.5-43.3-2.2c-14.2,6.5-24.3,19.4-26.9,34.6
	c-2,12.5-3.4,24.3-4.2,35.2C55,205.1,65.3,264.6,89,320.2c0.8,2.8,2,5.7,3.4,8.7l0.8,1.8c1.2,3,2.8,6.5,5.3,10.1
	c26.3,50,72.8,85.7,127.4,98.5c3.6,0.8,7.3,1.4,10.5,1.4c0.8,0,1.6,0,2.4-0.2h1.2c1.6,0,3-0.2,4.7-0.4c25.7-2,51.4-9.5,73.8-21.2
	c27.7-14.4,51-35.6,71.4-64.9c7.3-10.7,14.4-22.2,21.4-35.6c23.1-43.7,37.4-92.8,41.9-142.2c1-11.5,1.4-23.5,1.2-35.6
	C454.4,125.4,446.6,111.1,433.6,102.4z M197.4,276.3c-0.2-0.6-0.4-1-0.6-1.4l-36-78.5c-3-6.5-10.9-9.3-17.6-6.3
	c-6.5,3-9.3,10.9-6.3,17.4l23.9,51.6l-20.4-7.5c-6.9-2.6-14.4,1-17,7.7c-2.4,6.9,1,14.4,7.9,17l44.7,16.4l10.7,23.1
	c-0.6,3.2-1,6.7-1.4,10.1l-12.7-4.9c-6.7-2.6-14.4,0.8-16.8,7.7c-2.6,6.9,0.8,14.4,7.7,17l20.8,7.9c0.4,15,2.6,29.9,6.9,44.7
	c-29.5-15.8-54-40-69.8-70.6l-1.2-2c-1-1.2-1.8-3.4-2.8-5.5l-1-2.2c-0.6-1.6-1.4-2.8-1.6-4l-0.8-2.6C91,258.1,81.7,202.9,85.8,147.1
	c0.6-10.1,2-21,3.8-32.6c1.2-6.7,5.5-12.1,11.9-15c6.3-3,13.1-2.6,19,0.8c8.9,5.3,17.8,11.1,27.5,18.2
	c34.8,25.5,64.3,57.4,87.8,94.9c-4,4.9-7.7,9.9-11.3,15c-2.8,3-5.1,6.3-7.5,9.7c-2.2,3.4-4.4,6.9-4.9,8.5
	c-5.7,9.5-10.7,19.4-14.6,29.5C197.4,276.1,197.4,276.3,197.4,276.3z M426.9,174c-4,45.9-17.4,91.4-38.8,132.1
	c-6.5,12.3-12.9,23.1-19.8,33c-18,25.7-38.2,44.1-61.9,56.6c-18.4,9.7-39.2,15.8-60.1,18c-1.8,0.2-3.8,0.4-5.9,0.6l0.2-0.4
	l31.3-46.7l47.1-9.3c7.1-1.4,11.7-8.5,10.3-15.6c-1.4-7.1-8.3-11.7-15.4-10.3l-21.2,4.2l21.8-32.6l47.1-9.3
	c7.1-1.4,11.7-8.5,10.3-15.6c-1.4-7.1-8.3-11.7-15.6-10.3l-21,4l31.5-47.1c4-6.1,2.4-14.2-3.6-18.2c-6.1-4-14.2-2.4-18.2,3.6
	l-31.5,47.1l-4.2-21.2c-1.4-7.1-8.3-11.7-15.6-10.3c-7.1,1.4-11.7,8.3-10.3,15.6l9.3,47.1L271,321.6l-4.2-21.4
	c-1.4-7.1-8.3-11.5-15.4-10.3c-7.1,1.4-11.7,8.3-10.3,15.6l9.3,46.9l-31.8,47.3c-15.4-46.7-9.5-97.5,16.8-141.4
	c0.8-1.8,2.2-3.6,3.6-5.7c1.2-2,2.6-4,5.5-7.5c33.6-46.9,75.8-83.9,125.6-109.4c9.7-5.1,19.8-9.5,29.9-13.8c2.4-0.8,4.9-1.4,7.5-1.4
	c3.8,0,7.9,1.2,11.5,3.6c5.7,3.8,9.1,9.9,9.1,16.8C428.4,152.1,428,163.2,426.9,174z"/>
</svg>
